<?xml version="1.0" encoding="UTF-8" standalone="no" ?>
<!DOCTYPE svg PUBLIC "-//W3C//DTD SVG 1.1//EN" "http://www.w3.org/Graphics/SVG/1.1/DTD/svg11.dtd">
<svg xmlns="http://www.w3.org/2000/svg" xmlns:xlink="http://www.w3.org/1999/xlink" version="1.1" width="1280" height="1024" viewBox="0 0 1280 1024" xml:space="preserve">
<desc>Created with Fabric.js 5.3.0</desc>
<defs>
</defs>
<g transform="matrix(1 0 0 1 640 512)" id="background-logo"  >
<rect style="stroke: none; stroke-width: 0; stroke-dasharray: none; stroke-linecap: butt; stroke-dashoffset: 0; stroke-linejoin: miter; stroke-miterlimit: 4; fill: rgb(255,255,255); fill-opacity: 0; fill-rule: nonzero; opacity: 1;"  paint-order="stroke"  x="-640" y="-512" rx="0" ry="0" width="1280" height="1024" />
</g>
<g transform="matrix(3.346191508091666 0 0 3.3461915080916658 640.8595652864557 441.79487949558046)" id="logo-logo"  >
<g style=""  paint-order="stroke"   >
		<g transform="matrix(-0.6685897821391621 0 0 -0.6685897821391621 1.2532741373549356 0)"  >
<g style=""  paint-order="stroke"   >
		<g transform="matrix(1 0 0 1 1.2950000000000017 0.8699999999999903)"  >
<polygon style="stroke: none; stroke-width: 1; stroke-dasharray: none; stroke-linecap: butt; stroke-dashoffset: 0; stroke-linejoin: miter; stroke-miterlimit: 4; fill: rgb(17,172,232); fill-rule: nonzero; opacity: 1;"  paint-order="stroke"  points="86.645,-97.77 77.21499999999999,-88.91999999999999 77.22500000000001,-81.52999999999999 -71.845,75.24000000000002 -71.885,75.16000000000001 -76.36500000000001,77.38000000000001 -82.805,78.46000000000002 -95.145,97.77 -74.545,85.88000000000001 -73.515,80.02 -72.435,78.07000000000001 78.80499999999999,-80.99 86.02499999999999,-80.74999999999999 95.145,-89.28999999999999 86.50500000000001,-89.72999999999999 86.645,-97.77 " />
</g>
		<g transform="matrix(1 0 0 1 94.525 -94.8)"  >
<polygon style="stroke: none; stroke-width: 1; stroke-dasharray: none; stroke-linecap: butt; stroke-dashoffset: 0; stroke-linejoin: miter; stroke-miterlimit: 4; fill: rgb(17,172,232); fill-rule: nonzero; opacity: 1;"  paint-order="stroke"  points="-0.08500000000000796,5.2 5.474999999999994,-0.009999999999999787 0.2150000000000034,-0.29000000000000004 0.2949999999999875,-5.2 -5.474999999999994,0.20999999999999996 -5.465000000000003,5.0200000000000005 -0.08500000000000796,5.2 " />
</g>
		<g transform="matrix(1 0 0 1 -94.525 -93.45)"  >
<polygon style="stroke: none; stroke-width: 1; stroke-dasharray: none; stroke-linecap: butt; stroke-dashoffset: 0; stroke-linejoin: miter; stroke-miterlimit: 4; fill: rgb(17,172,232); fill-rule: nonzero; opacity: 1;"  paint-order="stroke"  points="0.08499999999999996,5.199999999999999 5.455,5.02 5.475,0.21999999999999886 -0.29499999999999993,-5.200000000000001 -0.20500000000000007,-0.28000000000000114 -5.475,-0.010000000000000675 0.08499999999999996,5.199999999999999 " />
</g>
		<g transform="matrix(1 0 0 1 -1.2849999999999966 2.2250000000000085)"  >
<polygon style="stroke: none; stroke-width: 1; stroke-dasharray: none; stroke-linecap: butt; stroke-dashoffset: 0; stroke-linejoin: miter; stroke-miterlimit: 4; fill: rgb(17,172,232); fill-rule: nonzero; opacity: 1;"  paint-order="stroke"  points="82.79499999999999,78.46499999999999 76.35499999999999,77.385 72.435,75.43499999999999 -77.22500000000001,-81.965 -77.215,-88.92500000000001 -86.655,-97.775 -86.515,-89.73500000000001 -95.14500000000001,-89.29500000000002 -86.025,-80.75500000000001 -78.415,-81.00500000000001 71.85499999999999,77.02499999999999 73.505,80.015 74.535,85.865 95.14500000000001,97.77499999999999 82.79499999999999,78.46499999999999 " />
</g>
</g>
</g>
		<g transform="matrix(0.19142670802433942 0 0 0.19142670802433948 1.2010581815784462 45.37053227204382)"  >
<g style=""  paint-order="stroke"   >
		<g transform="matrix(1 0 0 1 0 0)"  >
<path style="stroke: none; stroke-width: 1; stroke-dasharray: none; stroke-linecap: butt; stroke-dashoffset: 0; stroke-linejoin: miter; stroke-miterlimit: 4; fill: rgb(17,165,223); fill-rule: nonzero; opacity: 1;"  paint-order="stroke"  transform=" translate(-100, -86.5)" d="M 100 0.5 L 0 172.5 L 200 172.5 L 100 0.5 z M 100 20.4 L 182.8 162.8 L 17.2 162.8 L 100 20.4 z" stroke-linecap="round" />
</g>
</g>
</g>
		<g transform="matrix(0.19857452782272703 0 0 0.19857452782272703 -51.09668074082674 1.2044486244026587)"  >
<g style=""  paint-order="stroke"   >
		<g transform="matrix(1 0 0 1 0 0)"  >
<path style="stroke: none; stroke-width: 1; stroke-dasharray: none; stroke-linecap: butt; stroke-dashoffset: 0; stroke-linejoin: miter; stroke-miterlimit: 4; fill: rgb(17,172,232); fill-rule: nonzero; opacity: 1;"  paint-order="stroke"  transform=" translate(-100, -79)" d="M 99.63 158 L 0 49.84 L 46.89 0 L 153.09 0 L 200 49.85 Z M 12.53 49.91 L 99.65 144.49 L 187.44 49.9 L 149.1 9.14 L 50.88 9.14 Z" stroke-linecap="round" />
</g>
</g>
</g>
		<g transform="matrix(0.20914277344345894 0 0 0.20914277344345897 50.03985617875355 -1.8593391373166526)"  >
<g style=""  paint-order="stroke"   >
		<g transform="matrix(1 0 0 1 0 0)"  >
<path style="stroke: none; stroke-width: 1; stroke-dasharray: none; stroke-linecap: butt; stroke-dashoffset: 0; stroke-linejoin: miter; stroke-miterlimit: 4; fill: rgb(17,172,232); fill-rule: nonzero; opacity: 1;"  paint-order="stroke"  transform=" translate(-100, -100)" d="M 100 200 L 0 100 L 100 0 L 200 100 Z M 13.21 100 L 100 186.79 L 186.79 100 L 100 13.21 Z" stroke-linecap="round" />
</g>
</g>
</g>
</g>
</g>
<g transform="matrix(1.9211538461538462 0 0 1.9211538461538462 623.7611176070023 754.0821251806724)" id="text-logo"  >
<g style=""  paint-order="stroke"   >
		<g transform="matrix(1 0 0 1 0 0)" id="text-logo-path-0"  >
<path style="stroke: rgb(255,255,255); stroke-width: 0; stroke-dasharray: none; stroke-linecap: butt; stroke-dashoffset: 0; stroke-linejoin: miter; stroke-miterlimit: 4; fill: rgb(17,172,232); fill-rule: nonzero; opacity: 1;"  paint-order="stroke"  transform=" translate(-266.04999999999995, 17.34375)" d="M 6.2 -1.8 L 6.2 -8.45 C 6.2 -9.7 7.2 -10.7 8.45 -10.7 L 14.6 -10.7 C 21.2 -10.7 26.75 -16.25 26.75 -22.85 C 26.75 -29.45 21.2 -35 14.6 -35 L 4.95 -35 C 3.45 -35 2.2 -33.75 2.2 -32.25 L 2.2 -1.8 C 2.2 -0.7 3.1 0.2 4.2 0.2 C 5.3 0.2 6.2 -0.7 6.2 -1.8 Z M 6.2 -16.95 L 6.2 -16.95 L 6.2 -28.75 C 6.2 -30 7.2 -31 8.45 -31 L 14.6 -31 C 19.25 -31 22.75 -27.5 22.75 -22.85 C 22.75 -18.2 19.25 -14.7 14.6 -14.7 L 8.45 -14.7 C 7.2 -14.7 6.2 -15.7 6.2 -16.95 Z M 85.95 -2.45 L 73.4 -33.25 C 72.35 -35.9 68.75 -35.9 67.7 -33.25 L 55.15 -2.45 C 55.05 -2.2 55 -1.95 55 -1.65 C 55 -0.55 55.85 0.35 57 0.35 C 57.8 0.35 58.5 -0.15 58.8 -0.85 L 60.65 -5.4 C 61.1 -6.55 62.5 -7.5 63.75 -7.5 L 77.35 -7.5 C 78.6 -7.5 80 -6.55 80.45 -5.4 L 82.3 -0.85 C 82.6 -0.15 83.3 0.35 84.1 0.35 C 85.25 0.35 86.1 -0.55 86.1 -1.65 C 86.1 -1.95 86.05 -2.2 85.95 -2.45 Z M 64 -13.6 L 64 -13.6 L 69.7 -27.55 C 70.15 -28.7 70.95 -28.7 71.4 -27.55 L 77.1 -13.6 C 77.55 -12.45 76.95 -11.5 75.7 -11.5 L 65.4 -11.5 C 64.15 -11.5 63.55 -12.45 64 -13.6 Z M 128.8 -1.8 L 128.8 -28.75 C 128.8 -30 129.8 -31 131.05 -31 L 137.75 -31 C 138.85 -31 139.75 -31.9 139.75 -33 C 139.75 -34.1 138.85 -35 137.75 -35 L 115.85 -35 C 114.75 -35 113.85 -34.1 113.85 -33 C 113.85 -31.9 114.75 -31 115.85 -31 L 122.55 -31 C 123.8 -31 124.8 -30 124.8 -28.75 L 124.8 -1.8 C 124.8 -0.7 125.7 0.2 126.8 0.2 C 127.9 0.2 128.8 -0.7 128.8 -1.8 Z M 177 -1.8 L 177 -13.25 C 177 -14.5 178 -15.5 179.25 -15.5 L 194.25 -15.5 C 195.5 -15.5 196.5 -14.5 196.5 -13.25 L 196.5 -1.8 C 196.5 -0.7 197.4 0.2 198.5 0.2 C 199.6 0.2 200.5 -0.7 200.5 -1.8 L 200.5 -33.2 C 200.5 -34.3 199.6 -35.2 198.5 -35.2 C 197.4 -35.2 196.5 -34.3 196.5 -33.2 L 196.5 -21.75 C 196.5 -20.5 195.5 -19.5 194.25 -19.5 L 179.25 -19.5 C 178 -19.5 177 -20.5 177 -21.75 L 177 -33.2 C 177 -34.3 176.1 -35.2 175 -35.2 C 173.9 -35.2 173 -34.3 173 -33.2 L 173 -1.8 C 173 -0.7 173.9 0.2 175 0.2 C 176.1 0.2 177 -0.7 177 -1.8 Z M 237.75 -1.8 L 237.75 -13.25 C 237.75 -14.5 238.75 -15.5 240 -15.5 L 250.95 -15.5 C 252.05 -15.5 252.95 -16.4 252.95 -17.5 C 252.95 -18.6 252.05 -19.5 250.95 -19.5 L 240 -19.5 C 238.75 -19.5 237.75 -20.5 237.75 -21.75 L 237.75 -28.75 C 237.75 -30 238.75 -31 240 -31 L 254.45 -31 C 255.55 -31 256.45 -31.9 256.45 -33 C 256.45 -34.1 255.55 -35 254.45 -35 L 236.5 -35 C 235 -35 233.75 -33.75 233.75 -32.25 L 233.75 -1.8 C 233.75 -0.7 234.65 0.2 235.75 0.2 C 236.85 0.2 237.75 -0.7 237.75 -1.8 Z M 293.7 -1.8 L 293.7 -33.2 C 293.7 -34.3 292.8 -35.2 291.7 -35.2 C 290.6 -35.2 289.7 -34.3 289.7 -33.2 L 289.7 -1.8 C 289.7 -0.7 290.6 0.2 291.7 0.2 C 292.8 0.2 293.7 -0.7 293.7 -1.8 Z M 330.95 -1.8 L 330.95 -26.2 C 330.95 -27.45 331.5 -27.6 332.2 -26.6 L 349.3 -1.15 C 350.8 1.2 354.45 0.1 354.45 -2.75 L 354.45 -33.2 C 354.45 -34.3 353.55 -35.2 352.45 -35.2 C 351.35 -35.2 350.45 -34.3 350.45 -33.2 L 350.45 -8.8 C 350.45 -7.55 349.9 -7.4 349.2 -8.4 L 332.1 -33.85 C 330.6 -36.2 326.95 -35.1 326.95 -32.25 L 326.95 -1.8 C 326.95 -0.7 327.85 0.2 328.95 0.2 C 330.05 0.2 330.95 -0.7 330.95 -1.8 Z M 328.8 -31.65 L 328.85 -31.6 Z M 352.55 -3.4 L 352.6 -3.35 Z M 398.65 -4 L 393.95 -4 C 392.7 -4 391.7 -5 391.7 -6.25 L 391.7 -28.75 C 391.7 -30 392.7 -31 393.95 -31 L 398.65 -31 C 406.3 -31 412.15 -25.15 412.15 -17.55 C 412.15 -9.85 406.3 -4 398.65 -4 Z M 387.7 -32.25 L 387.7 -2.75 C 387.7 -1.25 388.95 0 390.45 0 L 398.65 0 C 408.25 0 416.15 -7.9 416.15 -17.55 C 416.15 -27.1 408.25 -35 398.65 -35 L 390.45 -35 C 388.95 -35 387.7 -33.75 387.7 -32.25 Z M 470.1 -4 L 455.65 -4 C 454.4 -4 453.4 -5 453.4 -6.25 L 453.4 -13.25 C 453.4 -14.5 454.4 -15.5 455.65 -15.5 L 466.6 -15.5 C 467.7 -15.5 468.6 -16.4 468.6 -17.5 C 468.6 -18.6 467.7 -19.5 466.6 -19.5 L 455.65 -19.5 C 454.4 -19.5 453.4 -20.5 453.4 -21.75 L 453.4 -28.75 C 453.4 -30 454.4 -31 455.65 -31 L 470.1 -31 C 471.2 -31 472.1 -31.9 472.1 -33 C 472.1 -34.1 471.2 -35 470.1 -35 L 452.15 -35 C 450.65 -35 449.4 -33.75 449.4 -32.25 L 449.4 -2.75 C 449.4 -1.25 450.65 0 452.15 0 L 470.1 0 C 471.2 0 472.1 -0.9 472.1 -2 C 472.1 -3.1 471.2 -4 470.1 -4 Z M 509.35 -1.8 L 509.35 -8.45 C 509.35 -9.7 510.35 -10.7 511.6 -10.7 L 514.95 -10.7 C 516.2 -10.7 517.8 -9.9 518.55 -8.9 L 525.25 -0.2 C 525.6 0.25 526.15 0.55 526.8 0.55 C 527.9 0.55 528.8 -0.3 528.8 -1.45 C 528.8 -1.9 528.65 -2.3 528.4 -2.65 L 523.05 -9.6 C 522.3 -10.6 522.6 -11.8 523.75 -12.35 C 527.4 -14.45 529.9 -18.4 529.9 -22.85 C 529.9 -29.45 524.35 -35 517.75 -35 L 508.1 -35 C 506.6 -35 505.35 -33.75 505.35 -32.25 L 505.35 -1.8 C 505.35 -0.7 506.25 0.2 507.35 0.2 C 508.45 0.2 509.35 -0.7 509.35 -1.8 Z M 509.35 -16.95 L 509.35 -16.95 L 509.35 -28.75 C 509.35 -30 510.35 -31 511.6 -31 L 517.75 -31 C 522.4 -31 525.9 -27.5 525.9 -22.85 C 525.9 -18.2 522.4 -14.7 517.75 -14.7 L 511.6 -14.7 C 510.35 -14.7 509.35 -15.7 509.35 -16.95 Z" stroke-linecap="round" />
</g>
</g>
</g>
<g transform="matrix(1.9211538461538462 0 0 1.9211538461538462 644.0891377277817 272.9098283355791)" id="tagline-a9322b8b-78ea-43fa-81af-d0900a5dccef-logo"  >
<g style=""  paint-order="stroke"   >
		<g transform="matrix(1 0 0 1 0 0)" id="tagline-a9322b8b-78ea-43fa-81af-d0900a5dccef-logo-path-0"  >
<path style="stroke: none; stroke-width: 0; stroke-dasharray: none; stroke-linecap: butt; stroke-dashoffset: 0; stroke-linejoin: miter; stroke-miterlimit: 4; fill: rgb(17,172,232); fill-rule: nonzero; opacity: 1;"  paint-order="stroke"  transform=" translate(-24.215000000000003, 26.96)" d="M 8.01 -52.04 L 8.01 -1.84 C 8.01 -0.83 8.84 0 9.85 0 C 10.94 0 11.77 -0.83 11.77 -1.84 L 11.77 -23.01 L 25.12 -23.16 C 29.36 -23.16 32.97 -24.66 35.94 -27.67 C 38.91 -30.64 40.42 -34.25 40.42 -38.5 C 40.42 -42.75 38.91 -46.36 35.94 -49.4 C 32.94 -52.41 29.33 -53.92 25.12 -53.92 L 10.08 -53.92 L 9.85 -53.92 C 8.84 -53.92 8.01 -53.05 8.01 -52.04 Z M 25.12 -26.81 L 11.77 -26.81 L 11.77 -50.12 L 25.12 -50.12 C 28.31 -50.12 31.06 -48.99 33.35 -46.73 C 35.6 -44.44 36.73 -41.7 36.73 -38.5 C 36.73 -35.3 35.6 -32.6 33.35 -30.3 C 31.06 -28.01 28.31 -26.84 25.12 -26.81 Z" stroke-linecap="round" />
</g>
</g>
</g>
</svg>